<mxfile host="app.diagrams.net" modified="2023-01-12T13:31:21.600Z" agent="5.0 (Windows NT 10.0; Win64; x64) AppleWebKit/537.36 (KHTML, like Gecko) Chrome/106.0.0.0 Safari/537.36" etag="OeRB-MJ0OTg2yrxheRpr" version="20.7.4" type="github" pages="2">
  <diagram id="4GLLIQhdpHBEhh_q-06G" name="Calculation">
    <mxGraphModel dx="1050" dy="491" grid="1" gridSize="10" guides="1" tooltips="1" connect="1" arrows="1" fold="1" page="1" pageScale="1" pageWidth="850" pageHeight="1100" math="0" shadow="0">
      <root>
        <mxCell id="0" />
        <mxCell id="1" parent="0" />
        <mxCell id="pO7IlGoGPXNvtMLjXT15-4" style="edgeStyle=orthogonalEdgeStyle;rounded=0;orthogonalLoop=1;jettySize=auto;html=1;" edge="1" parent="1" source="pO7IlGoGPXNvtMLjXT15-1">
          <mxGeometry relative="1" as="geometry">
            <mxPoint x="142" y="120" as="targetPoint" />
          </mxGeometry>
        </mxCell>
        <mxCell id="pO7IlGoGPXNvtMLjXT15-1" value="" style="aspect=fixed;html=1;points=[];align=center;image;fontSize=12;image=img/lib/azure2/general/Storage_Queue.svg;" vertex="1" parent="1">
          <mxGeometry x="110" y="20" width="64" height="52" as="geometry" />
        </mxCell>
        <mxCell id="pO7IlGoGPXNvtMLjXT15-2" value="pending-calculation" style="text;html=1;align=center;verticalAlign=middle;resizable=0;points=[];autosize=1;strokeColor=none;fillColor=none;" vertex="1" parent="1">
          <mxGeometry x="180" y="31" width="130" height="30" as="geometry" />
        </mxCell>
        <mxCell id="pO7IlGoGPXNvtMLjXT15-3" value="" style="aspect=fixed;html=1;points=[];align=center;image;fontSize=12;image=img/lib/azure2/compute/Function_Apps.svg;" vertex="1" parent="1">
          <mxGeometry x="110" y="130" width="68" height="60" as="geometry" />
        </mxCell>
        <mxCell id="pO7IlGoGPXNvtMLjXT15-5" value="RunCalculation" style="text;html=1;align=center;verticalAlign=middle;resizable=0;points=[];autosize=1;strokeColor=none;fillColor=none;" vertex="1" parent="1">
          <mxGeometry x="195" y="145" width="100" height="30" as="geometry" />
        </mxCell>
        <mxCell id="pO7IlGoGPXNvtMLjXT15-6" value="QueueTrigger" style="text;html=1;align=center;verticalAlign=middle;resizable=0;points=[];autosize=1;strokeColor=none;fillColor=none;" vertex="1" parent="1">
          <mxGeometry x="150" y="80" width="100" height="30" as="geometry" />
        </mxCell>
      </root>
    </mxGraphModel>
  </diagram>
  <diagram id="fTA7MFotd-9_AvmF4xbs" name="RunCalculation">
    <mxGraphModel dx="1434" dy="707" grid="1" gridSize="10" guides="1" tooltips="1" connect="1" arrows="1" fold="1" page="1" pageScale="1" pageWidth="850" pageHeight="1100" math="0" shadow="0">
      <root>
        <mxCell id="0" />
        <mxCell id="1" parent="0" />
        <mxCell id="HKU2c9Ces8uPX3244czo-3" style="edgeStyle=orthogonalEdgeStyle;rounded=0;orthogonalLoop=1;jettySize=auto;html=1;entryX=0.5;entryY=0;entryDx=0;entryDy=0;" edge="1" parent="1" source="HKU2c9Ces8uPX3244czo-1" target="HKU2c9Ces8uPX3244czo-2">
          <mxGeometry relative="1" as="geometry" />
        </mxCell>
        <mxCell id="HKU2c9Ces8uPX3244czo-1" value="Start" style="ellipse;whiteSpace=wrap;html=1;" vertex="1" parent="1">
          <mxGeometry x="180" y="30" width="120" height="80" as="geometry" />
        </mxCell>
        <mxCell id="HKU2c9Ces8uPX3244czo-5" value="" style="edgeStyle=orthogonalEdgeStyle;rounded=0;orthogonalLoop=1;jettySize=auto;html=1;" edge="1" parent="1" source="HKU2c9Ces8uPX3244czo-2" target="HKU2c9Ces8uPX3244czo-4">
          <mxGeometry relative="1" as="geometry" />
        </mxCell>
        <mxCell id="HKU2c9Ces8uPX3244czo-2" value="Gets Calculation meta data from &quot;EsgApiCalculationEndpoints&quot;&lt;br&gt;" style="rounded=0;whiteSpace=wrap;html=1;" vertex="1" parent="1">
          <mxGeometry x="130" y="160" width="220" height="60" as="geometry" />
        </mxCell>
        <mxCell id="HKU2c9Ces8uPX3244czo-7" value="" style="edgeStyle=orthogonalEdgeStyle;rounded=0;orthogonalLoop=1;jettySize=auto;html=1;" edge="1" parent="1" source="HKU2c9Ces8uPX3244czo-4" target="HKU2c9Ces8uPX3244czo-6">
          <mxGeometry relative="1" as="geometry" />
        </mxCell>
        <mxCell id="HKU2c9Ces8uPX3244czo-4" value="Constructs &quot;CalculationPortfolios&quot;" style="rounded=0;whiteSpace=wrap;html=1;" vertex="1" parent="1">
          <mxGeometry x="130" y="300" width="220" height="60" as="geometry" />
        </mxCell>
        <mxCell id="HKU2c9Ces8uPX3244czo-9" value="" style="edgeStyle=orthogonalEdgeStyle;rounded=0;orthogonalLoop=1;jettySize=auto;html=1;" edge="1" parent="1" source="HKU2c9Ces8uPX3244czo-6" target="HKU2c9Ces8uPX3244czo-8">
          <mxGeometry relative="1" as="geometry" />
        </mxCell>
        <mxCell id="HKU2c9Ces8uPX3244czo-6" value="Calls &quot;CalculationOrchestrator.Orchestrate&quot; with&lt;br&gt;&quot;CalculationPortfolios&quot; data" style="whiteSpace=wrap;html=1;rounded=0;" vertex="1" parent="1">
          <mxGeometry x="100" y="440" width="280" height="60" as="geometry" />
        </mxCell>
        <mxCell id="HKU2c9Ces8uPX3244czo-11" style="edgeStyle=orthogonalEdgeStyle;rounded=0;orthogonalLoop=1;jettySize=auto;html=1;entryX=0.5;entryY=0;entryDx=0;entryDy=0;" edge="1" parent="1" source="HKU2c9Ces8uPX3244czo-8" target="HKU2c9Ces8uPX3244czo-10">
          <mxGeometry relative="1" as="geometry" />
        </mxCell>
        <mxCell id="HKU2c9Ces8uPX3244czo-8" value="&quot;PortfolioCreator.Apply&quot; Returns &quot;Portfolio&quot; data" style="whiteSpace=wrap;html=1;rounded=0;" vertex="1" parent="1">
          <mxGeometry x="60" y="580" width="360" height="60" as="geometry" />
        </mxCell>
        <mxCell id="HKU2c9Ces8uPX3244czo-13" value="" style="edgeStyle=orthogonalEdgeStyle;rounded=0;orthogonalLoop=1;jettySize=auto;html=1;" edge="1" parent="1" source="HKU2c9Ces8uPX3244czo-10" target="HKU2c9Ces8uPX3244czo-12">
          <mxGeometry relative="1" as="geometry" />
        </mxCell>
        <mxCell id="HKU2c9Ces8uPX3244czo-15" value="" style="edgeStyle=orthogonalEdgeStyle;rounded=0;orthogonalLoop=1;jettySize=auto;html=1;" edge="1" parent="1" source="HKU2c9Ces8uPX3244czo-10">
          <mxGeometry relative="1" as="geometry">
            <mxPoint x="240" y="940" as="targetPoint" />
          </mxGeometry>
        </mxCell>
        <mxCell id="HKU2c9Ces8uPX3244czo-10" value="portfolioResult.IsFailure" style="rhombus;whiteSpace=wrap;html=1;" vertex="1" parent="1">
          <mxGeometry x="40" y="710" width="400" height="140" as="geometry" />
        </mxCell>
        <mxCell id="HKU2c9Ces8uPX3244czo-12" value="Return with error" style="ellipse;whiteSpace=wrap;html=1;" vertex="1" parent="1">
          <mxGeometry x="580" y="740" width="160" height="80" as="geometry" />
        </mxCell>
        <mxCell id="HKU2c9Ces8uPX3244czo-16" value="No" style="text;html=1;align=center;verticalAlign=middle;resizable=0;points=[];autosize=1;strokeColor=none;fillColor=none;" vertex="1" parent="1">
          <mxGeometry x="230" y="875" width="40" height="30" as="geometry" />
        </mxCell>
        <mxCell id="HKU2c9Ces8uPX3244czo-17" value="Yes" style="text;html=1;align=center;verticalAlign=middle;resizable=0;points=[];autosize=1;strokeColor=none;fillColor=none;" vertex="1" parent="1">
          <mxGeometry x="490" y="745" width="40" height="30" as="geometry" />
        </mxCell>
        <mxCell id="HKU2c9Ces8uPX3244czo-20" value="" style="edgeStyle=orthogonalEdgeStyle;rounded=0;orthogonalLoop=1;jettySize=auto;html=1;" edge="1" parent="1" source="HKU2c9Ces8uPX3244czo-18" target="HKU2c9Ces8uPX3244czo-19">
          <mxGeometry relative="1" as="geometry" />
        </mxCell>
        <mxCell id="HKU2c9Ces8uPX3244czo-18" value="calculationPortfolio.Providers.Contains(Provider.MSCI)" style="rhombus;whiteSpace=wrap;html=1;" vertex="1" parent="1">
          <mxGeometry x="60" y="940" width="360" height="110" as="geometry" />
        </mxCell>
        <mxCell id="HKU2c9Ces8uPX3244czo-23" value="" style="edgeStyle=orthogonalEdgeStyle;rounded=0;orthogonalLoop=1;jettySize=auto;html=1;" edge="1" parent="1" source="HKU2c9Ces8uPX3244czo-19" target="HKU2c9Ces8uPX3244czo-22">
          <mxGeometry relative="1" as="geometry" />
        </mxCell>
        <mxCell id="HKU2c9Ces8uPX3244czo-19" value="Fills&amp;nbsp; &quot;Portfolio.BusinessInvolvements&quot; data by calling&lt;br&gt;&quot;BusinessInvolvementsCreator.Apply&quot;" style="whiteSpace=wrap;html=1;" vertex="1" parent="1">
          <mxGeometry x="90" y="1130" width="300" height="60" as="geometry" />
        </mxCell>
        <mxCell id="HKU2c9Ces8uPX3244czo-21" value="Yes" style="text;html=1;align=center;verticalAlign=middle;resizable=0;points=[];autosize=1;strokeColor=none;fillColor=none;" vertex="1" parent="1">
          <mxGeometry x="250" y="1070" width="40" height="30" as="geometry" />
        </mxCell>
        <mxCell id="HKU2c9Ces8uPX3244czo-22" value="Fills &quot;portfolio.Holdings&quot; data by calling&lt;br&gt;&quot;FundLookThrough.Apply&quot;" style="whiteSpace=wrap;html=1;" vertex="1" parent="1">
          <mxGeometry x="110" y="1270" width="260" height="60" as="geometry" />
        </mxCell>
      </root>
    </mxGraphModel>
  </diagram>
</mxfile>
